<?xml version="1.0" encoding="us-ascii" standalone="no"?><svg xmlns="http://www.w3.org/2000/svg" xmlns:xlink="http://www.w3.org/1999/xlink" contentStyleType="text/css" height="1203px" preserveAspectRatio="none" style="width:1050px;height:1203px;background:#FFFFFF;" version="1.1" viewBox="0 0 1050 1203" width="1050px" zoomAndPan="magnify"><defs/><g><!--cluster adverseUC--><g id="cluster_adverseUC"><rect fill="none" height="447" rx="35" ry="35" style="stroke:#181818;stroke-width:1.0;" width="517" x="7" y="750.5"/><text fill="#000000" font-family="sans-serif" font-size="14" font-weight="bold" lengthAdjust="spacing" textLength="145" x="193" y="770.4951">Adverse Use Case</text></g><!--cluster Verwechslung--><g id="cluster_Verwechslung"><rect fill="none" height="233" rx="35" ry="35" style="stroke:#181818;stroke-width:1.0;" width="465.5" x="34.5" y="793.5"/><text fill="#000000" font-family="sans-serif" font-size="14" font-weight="bold" lengthAdjust="spacing" textLength="114" x="210.25" y="813.4951">Verwechslung</text></g><!--cluster gnrlUC--><g id="cluster_gnrlUC"><rect fill="none" height="702" rx="35" ry="35" style="stroke:#181818;stroke-width:1.0;" width="803" x="241" y="16.5"/><text fill="#000000" font-family="sans-serif" font-size="14" font-weight="bold" lengthAdjust="spacing" textLength="77" x="604" y="36.4951">Allgemein</text></g><!--cluster pdmsUC--><g id="cluster_pdmsUC"><rect fill="none" height="269" rx="35" ry="35" style="stroke:#181818;stroke-width:1.0;" width="723" x="281" y="83.5"/><text fill="#000000" font-family="sans-serif" font-size="14" font-weight="bold" lengthAdjust="spacing" textLength="146" x="569.5" y="103.4951">Intensiv und PDMS</text></g><g id="elem_Zustands-\nverschlechterung"><ellipse cx="120.0452" cy="1155.5473" fill="#F1F1F1" rx="97.0452" ry="26.0473" style="stroke:#181818;stroke-width:0.5;"/><text fill="#000000" font-family="sans-serif" font-size="14" lengthAdjust="spacing" textLength="71" x="84.5452" y="1150.2455">Zustands-</text><text fill="#000000" font-family="sans-serif" font-size="14" lengthAdjust="spacing" textLength="121" x="59.5452" y="1166.5424">verschlechterung</text></g><g id="elem_Trauma\n&amp; Koma"><ellipse cx="119.8762" cy="1068.5473" fill="#F1F1F1" rx="50.3762" ry="26.0473" style="stroke:#181818;stroke-width:0.5;"/><text fill="#000000" font-family="sans-serif" font-size="14" lengthAdjust="spacing" textLength="52" x="93.8762" y="1063.2455">Trauma</text><text fill="#000000" font-family="sans-serif" font-size="14" lengthAdjust="spacing" textLength="55" x="92.3762" y="1079.5424">&amp; Koma</text></g><g id="elem_Kollaps"><ellipse cx="415.1299" cy="1155.6562" fill="#F1F1F1" rx="46.6299" ry="14.6562" style="stroke:#181818;stroke-width:0.5;"/><text fill="#000000" font-family="sans-serif" font-size="14" lengthAdjust="spacing" textLength="49" x="387.6299" y="1159.4038">Kollaps</text></g><g id="elem_Datenl&#252;cken"><ellipse cx="415.24" cy="1089.548" fill="#F1F1F1" rx="68.24" ry="16.048" style="stroke:#181818;stroke-width:0.5;"/><text fill="#000000" font-family="sans-serif" font-size="14" lengthAdjust="spacing" textLength="88" x="368.24" y="1093.2956">Datenl&#252;cken</text></g><g id="elem_Intensiv-Fall"><ellipse cx="119.92" cy="991.484" fill="#F1F1F1" rx="65.42" ry="15.484" style="stroke:#181818;stroke-width:0.5;"/><text fill="#000000" font-family="sans-serif" font-size="14" lengthAdjust="spacing" textLength="80" x="76.92" y="995.2316">Intensiv-Fall</text></g><g id="elem_Verlegung"><ellipse cx="119.9096" cy="925.3819" fill="#F1F1F1" rx="62.4096" ry="14.8819" style="stroke:#181818;stroke-width:0.5;"/><text fill="#000000" font-family="sans-serif" font-size="14" lengthAdjust="spacing" textLength="71" x="81.4096" y="929.1295">Verlegung</text></g><g id="elem_Schweregrad"><ellipse cx="119.8288" cy="858.2658" fill="#F1F1F1" rx="69.3288" ry="16.2658" style="stroke:#181818;stroke-width:0.5;"/><text fill="#000000" font-family="sans-serif" font-size="14" lengthAdjust="spacing" textLength="91" x="71.3288" y="862.0133">Schweregrad</text></g><g id="elem_Diagnose"><ellipse cx="414.8197" cy="995.2671" fill="#F1F1F1" rx="59.3197" ry="14.7671" style="stroke:#181818;stroke-width:0.5;"/><text fill="#000000" font-family="sans-serif" font-size="14" lengthAdjust="spacing" textLength="66" x="378.8197" y="999.0147">Diagnose</text></g><g id="elem_Ursache"><ellipse cx="415.1007" cy="930.715" fill="#F1F1F1" rx="52.6007" ry="14.715" style="stroke:#181818;stroke-width:0.5;"/><text fill="#000000" font-family="sans-serif" font-size="14" lengthAdjust="spacing" textLength="57" x="383.6007" y="934.4626">Ursache</text></g><g id="elem_Labor-\nzurordnung"><ellipse cx="414.7609" cy="854.5473" fill="#F1F1F1" rx="68.7609" ry="26.0473" style="stroke:#181818;stroke-width:0.5;"/><text fill="#000000" font-family="sans-serif" font-size="14" lengthAdjust="spacing" textLength="43" x="393.2609" y="849.2455">Labor-</text><text fill="#000000" font-family="sans-serif" font-size="14" lengthAdjust="spacing" textLength="81" x="374.2609" y="865.5424">zurordnung</text></g><g id="elem_Kontrollma&#223;nahmen"><ellipse cx="414.7915" cy="607.6583" fill="#F1F1F1" rx="88.7915" ry="20.1583" style="stroke:#181818;stroke-width:0.5;"/><text fill="#000000" font-family="sans-serif" font-size="14" lengthAdjust="spacing" textLength="139" x="345.2915" y="610.505">Kontrollma&#223;nahmen</text></g><g id="elem_Datenerhebung"><ellipse cx="415.0612" cy="534.7122" fill="#F1F1F1" rx="76.5612" ry="17.7122" style="stroke:#181818;stroke-width:0.5;"/><text fill="#000000" font-family="sans-serif" font-size="14" lengthAdjust="spacing" textLength="110" x="357.0612" y="538.4598">Datenerhebung</text></g><g id="elem_Information"><ellipse cx="414.8963" cy="678.2793" fill="#F1F1F1" rx="64.3963" ry="15.2793" style="stroke:#181818;stroke-width:0.5;"/><text fill="#000000" font-family="sans-serif" font-size="14" lengthAdjust="spacing" textLength="77" x="373.3963" y="682.0268">Information</text></g><g id="elem_Schwellwerte"><ellipse cx="414.8288" cy="465.2658" fill="#F1F1F1" rx="69.3288" ry="16.2658" style="stroke:#181818;stroke-width:0.5;"/><text fill="#000000" font-family="sans-serif" font-size="14" lengthAdjust="spacing" textLength="91" x="366.3288" y="469.0133">Schwellwerte</text></g><g id="elem_Vitalfunktionen"><ellipse cx="414.9504" cy="396.5901" fill="#F1F1F1" rx="73.4504" ry="17.0901" style="stroke:#181818;stroke-width:0.5;"/><text fill="#000000" font-family="sans-serif" font-size="14" lengthAdjust="spacing" textLength="102" x="360.9504" y="400.3376">Vitalfunktionen</text></g><g id="elem_Gesamtzustand"><ellipse cx="678.0612" cy="622.7122" fill="#F1F1F1" rx="76.5612" ry="17.7122" style="stroke:#181818;stroke-width:0.5;"/><text fill="#000000" font-family="sans-serif" font-size="14" lengthAdjust="spacing" textLength="110" x="620.0612" y="626.4598">Gesamtzustand</text></g><g id="elem_Kurvenverlauf"><ellipse cx="678.0634" cy="553.4127" fill="#F1F1F1" rx="70.0634" ry="16.4127" style="stroke:#181818;stroke-width:0.5;"/><text fill="#000000" font-family="sans-serif" font-size="14" lengthAdjust="spacing" textLength="93" x="628.5634" y="557.1602">Kurvenverlauf</text></g><g id="elem_Post-Operative \nBetreuung"><ellipse cx="678.2406" cy="475.6307" fill="#F1F1F1" rx="86.7406" ry="26.1307" style="stroke:#181818;stroke-width:0.5;"/><text fill="#000000" font-family="sans-serif" font-size="14" lengthAdjust="spacing" textLength="102" x="622.2406" y="471.2298">Post-Operative</text><text fill="#000000" font-family="sans-serif" font-size="14" lengthAdjust="spacing" textLength="74" x="638.2406" y="487.5267">Betreuung</text></g><g id="elem_Koma-Betreuung"><ellipse cx="677.7839" cy="395.3568" fill="#F1F1F1" rx="79.7839" ry="18.3568" style="stroke:#181818;stroke-width:0.5;"/><text fill="#000000" font-family="sans-serif" font-size="14" lengthAdjust="spacing" textLength="118" x="617.0356" y="398.7613">Koma-Betreuung</text></g><g id="elem_Ger&#228;teanbindung"><ellipse cx="912.0271" cy="622.6054" fill="#F1F1F1" rx="81.0271" ry="18.6054" style="stroke:#181818;stroke-width:0.5;"/><text fill="#000000" font-family="sans-serif" font-size="14" lengthAdjust="spacing" textLength="121" x="850.2415" y="625.8718">Ger&#228;teanbindung</text></g><g id="elem_Feindiagnose"><ellipse cx="912.0634" cy="552.4127" fill="#F1F1F1" rx="70.0634" ry="16.4127" style="stroke:#181818;stroke-width:0.5;"/><text fill="#000000" font-family="sans-serif" font-size="14" lengthAdjust="spacing" textLength="93" x="862.5634" y="556.1602">Feindiagnose</text></g><g id="elem_Monitoring"><ellipse cx="415.0625" cy="294.5125" fill="#F1F1F1" rx="63.0625" ry="15.0125" style="stroke:#181818;stroke-width:0.5;"/><text fill="#000000" font-family="sans-serif" font-size="14" lengthAdjust="spacing" textLength="73" x="375.5625" y="298.2601">Monitoring</text></g><g id="elem_Detail&#252;berwachung \n&amp; Analyse"><ellipse cx="414.9957" cy="218.7493" fill="#F1F1F1" rx="109.9957" ry="26.2493" style="stroke:#181818;stroke-width:0.5;"/><text fill="#000000" font-family="sans-serif" font-size="14" lengthAdjust="spacing" textLength="134" x="342.9957" y="214.3484">Detail&#252;berwachung</text><text fill="#000000" font-family="sans-serif" font-size="14" lengthAdjust="spacing" textLength="69" x="377.4957" y="230.6453">&amp; Analyse</text></g><g id="elem_EKG"><ellipse cx="414.9914" cy="142.5236" fill="#F1F1F1" rx="31.9914" ry="14.5236" style="stroke:#181818;stroke-width:0.5;"/><text fill="#000000" font-family="sans-serif" font-size="14" lengthAdjust="spacing" textLength="29" x="400.4914" y="145.3703">EKG</text></g><g id="elem_GCS"><ellipse cx="678.1985" cy="305.5236" fill="#F1F1F1" rx="32.6985" ry="14.5236" style="stroke:#181818;stroke-width:0.5;"/><text fill="#000000" font-family="sans-serif" font-size="14" lengthAdjust="spacing" textLength="30" x="663.1709" y="308.381">GCS</text></g><g id="elem_Wertabfrage nach ICU"><ellipse cx="678.2229" cy="234.5446" fill="#F1F1F1" rx="93.2229" ry="21.0446" style="stroke:#181818;stroke-width:0.5;"/><text fill="#000000" font-family="sans-serif" font-size="14" lengthAdjust="spacing" textLength="149" x="603.7229" y="237.3913">Wertabfrage nach ICU</text></g><g id="elem_ICU-Normal \nVerlegung"><ellipse cx="678.0538" cy="152.5473" fill="#F1F1F1" rx="68.0538" ry="26.0473" style="stroke:#181818;stroke-width:0.5;"/><text fill="#000000" font-family="sans-serif" font-size="14" lengthAdjust="spacing" textLength="76" x="638.0538" y="147.2455">ICU-Normal</text><text fill="#000000" font-family="sans-serif" font-size="14" lengthAdjust="spacing" textLength="71" x="642.5538" y="163.5424">Verlegung</text></g><g id="elem_Normal-ICU \nVerlegung"><ellipse cx="912.0538" cy="294.5473" fill="#F1F1F1" rx="68.0538" ry="26.0473" style="stroke:#181818;stroke-width:0.5;"/><text fill="#000000" font-family="sans-serif" font-size="14" lengthAdjust="spacing" textLength="76" x="872.0538" y="289.2455">Normal-ICU</text><text fill="#000000" font-family="sans-serif" font-size="14" lengthAdjust="spacing" textLength="71" x="876.5538" y="305.5424">Verlegung</text></g><!--entity Heilberufler--><g id="elem_Heilberufler"><ellipse cx="120" cy="14" fill="#F1F1F1" rx="8" ry="8" style="stroke:#181818;stroke-width:0.5;"/><path d="M120,22 L120,49 M107,30 L133,30 M120,49 L107,64 M120,49 L133,64 " fill="none" style="stroke:#181818;stroke-width:0.5;"/><text fill="#000000" font-family="sans-serif" font-size="14" lengthAdjust="spacing" textLength="78" x="81" y="78.4951">Heilberufler</text></g><!--entity Versicherter--><g id="elem_Versicherter"><ellipse cx="120" cy="482" fill="#F1F1F1" rx="8" ry="8" style="stroke:#181818;stroke-width:0.5;"/><path d="M120,490 L120,517 M107,498 L133,498 M120,517 L107,532 M120,517 L133,532 " fill="none" style="stroke:#181818;stroke-width:0.5;"/><text fill="#000000" font-family="sans-serif" font-size="14" lengthAdjust="spacing" textLength="84" x="78" y="546.4951">Versicherter</text></g><!--link Heilberufler to gnrlUC--><g id="link_Heilberufler_gnrlUC"><path d="M159,43.5 C178.51,43.5 203.8606,43.5 230.9956,43.5 C232.6916,43.5 234.3945,43.5 236.1034,43.5 C236.9578,43.5 237.8137,43.5 238.6711,43.5 C239.0997,43.5 233.5287,43.5 233.958,43.5 " fill="none" id="Heilberufler-to-gnrlUC" style="stroke:#181818;stroke-width:1.0;"/><polygon fill="#181818" points="239.958,43.5,230.958,39.5,234.958,43.5,230.958,47.5,239.958,43.5" style="stroke:#181818;stroke-width:1.0;"/></g><!--link Versicherter to pdmsUC--><g id="link_Versicherter_pdmsUC"><path d="M133.32,473.21 C148.18,434.06 177.3,375.31 225,348.5 C234.0125,343.435 250.0356,340.6206 269.073,339.2559 C271.4526,339.0854 273.8794,338.9374 276.3455,338.8106 C277.5785,338.7471 272.8267,338.9432 274.0784,338.8901 " fill="none" id="Versicherter-to-pdmsUC" style="stroke:#181818;stroke-width:1.0;"/><polygon fill="#181818" points="280.073,338.6359,270.9117,335.0208,275.0775,338.8477,271.2506,343.0136,280.073,338.6359" style="stroke:#181818;stroke-width:1.0;"/></g><!--link Versicherter to Information--><g id="link_Versicherter_Information"><path d="M140.54,549.65 C158.31,580.32 187.47,621.87 225,644.5 C262.69,667.22 305.775,675.1261 344.465,677.8661 " fill="none" id="Versicherter-to-Information" style="stroke:#181818;stroke-width:1.0;"/><polygon fill="#181818" points="350.45,678.29,341.7551,673.6642,345.4625,677.9368,341.1899,681.6442,350.45,678.29" style="stroke:#181818;stroke-width:1.0;"/></g><!--SRC=[RLF1Rjim3BtxAuWUrlJW7mYA0csofa7NhMYM3XXwOMpQ5Y9JXYGdI8T-ooxxZDtwOwKIErRN6R01FZu_aO-KfiA3Ds1LMNd8bQNCAyF9gLihRj1Y3GrcQonfuNUQ8DEcpUEiLan-rn0OwokJ9AUOUMDXV7qpVu07QenJ4k_6W0wcLt1-3fTDerM6uHYuk4Ww_WqflIBR5fhik0SVoJgLLMHz09rWKWXWlX6SbfEWUN9vY60fxmGTdS2l1EJfsICHsL9METroUNR8XMSqPq_ir2QzHgtF1bpucif07h15Lct9KcanZz2fmfADemXQMeTIS8HymPMnwHC_jzROd8-wB_llw6VhF7BkX17wo2ejjKgxHzxekyMsnYV-1BUcnWwyDLfZuxfeYjAAVlsRhOdFafVaQ5N9LlS-QLrIJOfxWqI3lHMT6bz_CrPr-7UG8rlHQgXYpeMnzNvg7RBtHEjjc4u7FIgFkcXv7MX7kHavhFtpeT6-_jPkA7IiiIqwxDuudtvhoCef6u8dlY9lgHrg2Fsd_u8pigz_F26l5ES3V2sTvk_cqtlIvBNhFEbN05hEuNvwjpY9zkFES5XT9P8GpPmyAh5QTdKhavO38Opcab7ltct2vzjP5CqcYoZw8PxXgjYNmw82yyaoIakKVWrkQz7-tpeUagdmFX9UmlpZsmHfUj4jGX9Vg3r-CECZ7eqxaKjTSERTFZ5SlZ7KogjITiN5X6xbna2CAqtk3G00]--></g></svg>